# File created by Blade
# Date/Time:  Wed Jan 21 16:02:01 2015
# Frame Rate: 120.000 fps
#------------------------------------------------------
:FULLY-SPECIFIED
:DEGREES
2080
root 21.703776 34.762387 -11.962378 -181.578290 -9.136347 -179.478751
Spine 2.582032 -2.771566 -5.115785
Head 9.045750 0.630942 7.221508
LeftShoulder -10.826849 -17.180508 -3.452983
LeftArm -23.170458 8.038335 -76.040975
LeftForeArm -1.822234 -0.000000 11.136509
LeftHand -2.905980 0.000000 -0.526253
LeftHandThumb1 -26.253704 0.000000 33.147579
RightShoulder -12.228265 -20.491725 8.406622
RightArm 12.031988 -8.899524 72.589772
RightForeArm -23.518131 -0.000000 20.459778
RightHand -0.961076 -0.000000 -4.843235
RightHandThumb1 -24.326973 -0.000000 -32.862282
LeftUpLeg 8.561234 2.460177 -11.306660
LeftLeg 8.898241 -0.000000 -0.000000
LeftFoot -28.471657 6.737539 -11.315173
LeftToeBase 28.654844 -0.000000 -0.000000
RightUpLeg -13.311583 -8.054821 12.715986
RightLeg 15.372144 -0.000000 -0.000000
RightFoot -23.743917 -32.610718 11.035074
RightToeBase 19.016776 -0.000000 -0.000000
2081
root 21.655220 34.759543 -11.975904 -181.149632 -9.234541 -179.252148
Spine 2.417152 -2.860068 -4.531381
Head 8.481050 0.657694 6.751520
LeftShoulder -10.869082 -17.420322 -3.660953
LeftArm -23.375046 7.819053 -75.838985
LeftForeArm -1.330336 -0.000000 11.619882
LeftHand -2.951539 -0.000000 -0.894653
LeftHandThumb1 -26.253704 0.000000 33.147579
RightShoulder -12.314715 -20.460830 8.451503
RightArm 11.525430 -8.234518 72.715022
RightForeArm -23.491206 0.000000 20.618667
RightHand -0.994477 -0.000000 -4.824673
RightHandThumb1 -24.326973 -0.000000 -32.862282
LeftUpLeg 7.977733 2.273226 -11.161364
LeftLeg 9.236559 -0.000000 -0.000000
LeftFoot -28.803460 6.638074 -11.358257
LeftToeBase 29.301452 -0.000000 -0.000000
RightUpLeg -13.597391 -7.991014 12.960108
RightLeg 14.988973 -0.000000 -0.000000
RightFoot -23.279265 -32.859864 10.404211
RightToeBase 18.763518 -0.000000 -0.000000
2082
root 21.613648 34.768338 -11.979496 -180.714439 -9.220020 -178.940628
Spine 2.262069 -2.776983 -3.833439
Head 7.843671 0.613731 6.251717
LeftShoulder -10.948441 -17.701941 -3.912997
LeftArm -23.385716 7.641495 -75.599076
LeftForeArm -0.732025 -0.000000 11.855910
LeftHand -2.864020 -0.000000 -1.084271
LeftHandThumb1 -26.253704 0.000000 33.147579
RightShoulder -12.417868 -20.352162 8.513061
RightArm 11.067587 -7.254736 72.888176
RightForeArm -23.957243 -0.000000 20.601382
RightHand -0.973400 -0.000000 -4.214680
RightHandThumb1 -24.326973 -0.000000 -32.862282
LeftUpLeg 7.288976 2.199187 -10.928674
LeftLeg 9.666148 -0.000000 -0.000000
LeftFoot -29.093570 6.592343 -11.428958
LeftToeBase 30.052196 -0.000000 -0.000000
RightUpLeg -13.984325 -7.294431 13.169255
RightLeg 14.717680 -0.000000 -0.000000
RightFoot -23.020506 -33.480914 10.648060
RightToeBase 19.362591 -0.000000 -0.000000
2083
root 21.568682 34.783268 -11.984410 -180.309853 -9.096727 -178.592827
Spine 2.117096 -2.622342 -3.049647
Head 7.236191 0.602100 5.659511
LeftShoulder -11.089232 -18.006292 -4.203656
LeftArm -23.383017 7.519931 -75.345373
LeftForeArm -0.315495 -0.000000 12.107816
LeftHand -2.912297 -0.000000 -1.286119
LeftHandThumb1 -26.253704 0.000000 33.147579
RightShoulder -12.513268 -20.225042 8.505418
RightArm 10.687373 -6.496598 72.969398
RightForeArm -24.147603 -0.000000 20.499592
RightHand -0.815487 0.000000 -3.789738
RightHandThumb1 -24.326973 -0.000000 -32.862282
LeftUpLeg 6.596864 2.190273 -10.656931
LeftLeg 10.157183 -0.000000 -0.000000
LeftFoot -29.324239 6.483596 -11.608777
LeftToeBase 30.372622 -0.000000 -0.000000
RightUpLeg -14.363273 -6.595268 13.382423
RightLeg 14.632791 -0.000000 -0.000000
RightFoot -23.216226 -33.745288 11.631755
RightToeBase 19.322493 -0.000000 -0.000000
2084
root 21.506092 34.799017 -11.993303 -179.968431 -8.905066 -178.325252
Spine 2.027483 -2.426078 -2.320657
Head 6.710920 0.627740 5.018745
LeftShoulder -11.211202 -18.374794 -4.445436
LeftArm -23.470985 7.229423 -75.114689
LeftForeArm 0.382791 -0.000000 12.354044
LeftHand -3.021284 -0.000000 -1.371590
LeftHandThumb1 -26.253704 0.000000 33.147579
RightShoulder -12.509090 -20.165008 8.337662
RightArm 10.401412 -5.812714 73.122940
RightForeArm -24.542407 -0.000000 20.343256
RightHand -0.866444 -0.000000 -3.394490
RightHandThumb1 -24.326973 -0.000000 -32.862282
LeftUpLeg 6.010975 2.161531 -10.513031
LeftLeg 10.590483 -0.000000 -0.000000
LeftFoot -29.482205 6.459808 -11.900225
LeftToeBase 30.761629 -0.000000 -0.000000
RightUpLeg -14.681269 -6.411234 13.575884
RightLeg 14.620804 -0.000000 -0.000000
RightFoot -23.258612 -33.597096 12.175717
RightToeBase 19.222048 -0.000000 -0.000000
2085
root 21.440995 34.815242 -12.008783 -179.687448 -8.677693 -178.076452
Spine 1.983058 -2.203233 -1.626035
Head 6.223497 0.718390 4.404823
LeftShoulder -11.299884 -18.661759 -4.605424
LeftArm -23.490869 6.810305 -74.930375
LeftForeArm 1.054763 -0.000000 12.544658
LeftHand -3.082930 -0.000000 -1.313468
LeftHandThumb1 -26.253704 0.000000 33.147579
RightShoulder -12.442062 -20.080833 8.045446
RightArm 10.080920 -5.113862 73.366789
RightForeArm -24.975955 -0.000000 20.202291
RightHand -0.865097 -0.000000 -2.857966
RightHandThumb1 -24.326973 -0.000000 -32.862282
LeftUpLeg 5.456883 2.351886 -10.347196
LeftLeg 11.096940 -0.000000 -0.000000
LeftFoot -29.637487 6.223151 -12.199965
LeftToeBase 31.363519 -0.000000 -0.000000
RightUpLeg -14.908583 -6.436387 13.765110
RightLeg 14.601018 -0.000000 -0.000000
RightFoot -23.238657 -33.109039 12.544021
RightToeBase 18.860029 -0.000000 -0.000000
2086
root 21.366419 34.830297 -12.031793 -179.448196 -8.449652 -177.903112
Spine 1.951240 -1.993009 -1.021041
Head 5.833054 0.860862 3.821707
LeftShoulder -11.320363 -18.934501 -4.662508
LeftArm -23.594058 6.359563 -74.854864
LeftForeArm 1.537737 -0.000000 12.747524
LeftHand -3.177429 0.000000 -1.222534
LeftHandThumb1 -26.253704 0.000000 33.147579
RightShoulder -12.282932 -19.947130 7.607464
RightArm 9.632447 -4.360184 73.738637
RightForeArm -25.506699 -0.000000 20.076815
RightHand -0.685666 0.000000 -2.445550
RightHandThumb1 -24.326973 -0.000000 -32.862282
LeftUpLeg 4.996078 2.527389 -10.268924
LeftLeg 11.554577 -0.000000 -0.000000
LeftFoot -29.744017 5.988150 -12.646783
LeftToeBase 31.984418 -0.000000 -0.000000
RightUpLeg -15.056740 -6.547220 13.838687
RightLeg 14.578008 -0.000000 -0.000000
RightFoot -23.182165 -32.499077 12.698078
RightToeBase 19.291748 -0.000000 -0.000000
2087
root 21.292231 34.844441 -12.056825 -179.205527 -8.232487 -177.795921
Spine 1.903420 -1.800668 -0.524820
Head 5.489611 0.929390 3.269318
LeftShoulder -11.285633 -19.074848 -4.645937
LeftArm -23.660215 5.691100 -74.768943
LeftForeArm 2.227034 -0.000000 13.064486
LeftHand -3.230654 -0.000000 -1.233405
LeftHandThumb1 -26.253704 0.000000 33.147579
RightShoulder -12.150480 -19.899821 7.151878
RightArm 9.321744 -3.701637 74.122039
RightForeArm -26.045730 -0.000000 19.959582
RightHand -0.676830 0.000000 -1.937660
RightHandThumb1 -24.326973 -0.000000 -32.862282
LeftUpLeg 4.523647 2.770088 -10.231939
LeftLeg 12.059120 -0.000000 -0.000000
LeftFoot -29.943281 5.642891 -13.182978
LeftToeBase 32.963900 -0.000000 -0.000000
RightUpLeg -15.220818 -6.727645 13.882737
RightLeg 14.547779 -0.000000 -0.000000
RightFoot -23.199163 -32.052791 12.855134
RightToeBase 19.155532 -0.000000 -0.000000
2088
root 21.218514 34.856595 -12.081800 -178.951611 -8.050579 -177.727458
Spine 1.818170 -1.682581 -0.093252
Head 5.170268 1.114826 2.795141
LeftShoulder -11.203507 -19.225421 -4.590277
LeftArm -23.814242 4.962358 -74.650376
LeftForeArm 2.924551 -0.000000 13.485419
LeftHand -3.408875 -0.000000 -1.385056
LeftHandThumb1 -26.253704 0.000000 33.147579
RightShoulder -11.962625 -19.948087 6.666887
RightArm 9.062485 -3.023143 74.509872
RightForeArm -26.624931 -0.000000 19.913936
RightHand -0.484332 -0.000000 -1.326493
RightHandThumb1 -24.326973 -0.000000 -32.862282
LeftUpLeg 4.000829 3.215882 -10.179078
LeftLeg 12.655166 -0.000000 -0.000000
LeftFoot -30.186480 5.062147 -13.719229
LeftToeBase 34.193333 -0.000000 -0.000000
RightUpLeg -15.412503 -6.852799 13.910894
RightLeg 14.522493 -0.000000 -0.000000
RightFoot -23.271159 -31.840540 13.095593
RightToeBase 19.338078 -0.000000 -0.000000
2089
root 21.148364 34.869130 -12.104279 -178.633028 -7.958049 -177.687310
Spine 1.627162 -1.620679 0.260331
Head 4.929064 1.185620 2.388658
LeftShoulder -11.037056 -19.318757 -4.509445
LeftArm -24.039088 4.478507 -74.624781
LeftForeArm 3.365574 -0.000000 13.983609
LeftHand -3.510974 -0.000000 -1.141990
LeftHandThumb1 -26.253704 0.000000 33.147579
RightShoulder -11.769691 -19.981155 6.239757
RightArm 8.771854 -2.518206 74.803257
RightForeArm -27.035300 -0.000000 19.882212
RightHand -0.474282 0.000000 -0.780994
RightHandThumb1 -24.326973 -0.000000 -32.862282
LeftUpLeg 3.397256 3.618777 -10.127025
LeftLeg 13.320153 -0.000000 -0.000000
LeftFoot -30.312181 4.386326 -14.127079
LeftToeBase 34.233037 -0.000000 -0.000000
RightUpLeg -15.673475 -6.777747 13.877596
RightLeg 14.527482 -0.000000 -0.000000
RightFoot -23.304869 -31.742401 13.177494
RightToeBase 19.566171 -0.000000 -0.000000
2090
root 21.086158 34.880468 -12.119018 -178.308484 -8.010262 -177.667713
Spine 1.455980 -1.723516 0.549375
Head 4.624520 1.274539 2.074216
LeftShoulder -10.853098 -19.424585 -4.377358
LeftArm -24.235220 3.982404 -74.564275
LeftForeArm 3.690921 -0.000000 14.474591
LeftHand -3.547560 -0.000000 -1.104699
LeftHandThumb1 -26.253704 0.000000 33.147579
RightShoulder -11.559230 -19.995282 5.854260
RightArm 8.536327 -1.973863 75.056711
RightForeArm -27.533554 -0.000000 19.889028
RightHand -0.339197 -0.000000 -0.100519
RightHandThumb1 -24.326973 -0.000000 -32.862282
LeftUpLeg 2.671727 4.157454 -10.020044
LeftLeg 14.225027 -0.000000 -0.000000
LeftFoot -30.408554 3.359465 -14.464644
LeftToeBase 34.215577 -0.000000 -0.000000
RightUpLeg -15.966224 -6.583115 13.777907
RightLeg 14.555762 -0.000000 -0.000000
RightFoot -23.405589 -31.692578 13.374907
RightToeBase 19.830332 -0.000000 -0.000000
2091
root 21.024208 34.891667 -12.140453 -178.052581 -8.121876 -177.669172
Spine 1.339959 -1.865192 0.795907
Head 4.336486 1.338623 1.780990
LeftShoulder -10.657368 -19.447858 -4.269112
LeftArm -24.308525 3.807371 -74.573307
LeftForeArm 3.700701 -0.000000 14.963680
LeftHand -3.639841 -0.000000 -0.899705
LeftHandThumb1 -26.253704 0.000000 33.147579
RightShoulder -11.361234 -20.012587 5.519360
RightArm 8.339679 -1.703717 75.173687
RightForeArm -27.744570 0.000000 19.935221
RightHand -0.352001 -0.000000 0.632103
RightHandThumb1 -24.326973 -0.000000 -32.862282
LeftUpLeg 1.986963 4.730342 -9.899009
LeftLeg 15.212465 -0.000000 -0.000000
LeftFoot -30.469637 2.261550 -14.632420
LeftToeBase 35.565039 -0.000000 -0.000000
RightUpLeg -16.168620 -6.373065 13.639607
RightLeg 14.561031 -0.000000 -0.000000
RightFoot -23.559915 -31.724704 13.628212
RightToeBase 19.989599 -0.000000 -0.000000
2092
root 20.965600 34.903710 -12.154526 -177.797082 -8.341154 -177.690326
Spine 1.246661 -2.111477 0.994289
Head 4.006237 1.451438 1.556385
LeftShoulder -10.468746 -19.579110 -4.137256
LeftArm -24.421003 3.833918 -74.585763
LeftForeArm 3.724839 -0.000000 15.451074
LeftHand -3.757590 -0.000000 -0.839285
LeftHandThumb1 -26.253704 0.000000 33.147579
RightShoulder -11.203919 -19.976889 5.265691
RightArm 8.214682 -1.500834 75.177002
RightForeArm -27.967507 -0.000000 19.923381
RightHand -0.304377 0.000000 1.372728
RightHandThumb1 -24.326973 -0.000000 -32.862282
LeftUpLeg 1.192727 5.323099 -9.763473
LeftLeg 16.435649 -0.000000 -0.000000
LeftFoot -30.340161 0.815219 -15.182415
LeftToeBase 35.432403 -0.000000 -0.000000
RightUpLeg -16.370045 -6.223365 13.502976
RightLeg 14.501735 -0.000000 -0.000000
RightFoot -23.657417 -31.961827 13.754800
RightToeBase 20.088987 -0.000000 -0.000000
